<?xml version="1.0" encoding="utf-8"?>
<!-- Generator: Adobe Illustrator 12.0.0, SVG Export Plug-In . SVG Version: 6.00 Build 51448)  -->
<!DOCTYPE svg PUBLIC "-//W3C//DTD SVG 1.1//EN" "http://www.w3.org/Graphics/SVG/1.1/DTD/svg11.dtd" [
	<!ENTITY ns_svg "http://www.w3.org/2000/svg">
	<!ENTITY ns_xlink "http://www.w3.org/1999/xlink">
]>
<svg  version="1.1" id="レイヤー_1" xmlns="&ns_svg;" xmlns:xlink="&ns_xlink;" width="623.626" height="623.626"
	 viewBox="0 0 623.626 623.626" overflow="visible" enable-background="new 0 0 623.626 623.626" xml:space="preserve">
<g>
	<path fill="#FFFFFF" d="M259.543,202.19c-3.994,0-7.764,0.821-11.24,2.217c2.256,2.158,3.74,5.166,3.74,8.54
		c0,6.529-5.313,11.817-11.836,11.817c-3.369,0-6.396-1.446-8.525-3.711c-1.407,3.476-2.227,7.251-2.227,11.235
		c0,16.616,13.485,30.093,30.088,30.093c16.621,0,30.087-13.477,30.087-30.093C289.631,215.677,276.164,202.19,259.543,202.19z"/>
	<path fill="#FFFFFF" d="M365.93,202.19c-3.994,0-7.754,0.821-11.239,2.217c2.284,2.158,3.709,5.166,3.709,8.54
		c0,6.529-5.272,11.817-11.816,11.817c-3.358,0-6.377-1.446-8.524-3.711c-1.397,3.476-2.228,7.251-2.228,11.235
		c0,16.616,13.496,30.093,30.099,30.093c16.631,0,30.088-13.477,30.088-30.093C396.018,215.677,382.561,202.19,365.93,202.19z"/>
	<path fill="#FFFFFF" d="M446.506,244.534c0-11.596,0-19.331,0-19.331c0-25.112-7.168-48.496-19.365-68.442
		c19.442-4.385,35.438-23.516,41.601-35.86c-33.623,9.6-82.617-6.728-98.965-15.376c-16.406-7.251-34.58-11.572-53.817-11.699
		c-19.238,0.127-37.422,4.448-53.828,11.699c-16.338,8.648-65.342,24.976-98.965,15.376c6.162,12.344,22.157,31.475,41.621,35.86
		c-12.217,19.946-19.375,43.33-19.375,68.442c0,0,0,7.764,0,19.396c-8.584,13.612-15.645,32.578-19.229,54.188
		c-7.481,45.235,2.979,84.64,23.33,88.013c0.527,0.084,1.074,0.05,1.621,0.084c16.514,50.81,65.898,86.938,104.033,122.92
		c6.924,6.527,13.857,13.012,20.791,19.512c6.934-6.5,13.856-12.984,20.79-19.512c38.136-35.982,87.521-72.11,104.033-122.92
		c0.558-0.034,1.115,0.004,1.67-0.084c20.353-3.373,30.801-42.777,23.312-88.013C462.191,277.143,455.109,258.144,446.506,244.534z
		 M253.274,425.867c0,3.023-2.452,5.479-5.469,5.479c-3.018,0-5.479-2.456-5.479-5.479v-26.035c0-3.021,2.461-5.478,5.479-5.478
		c3.017,0,5.469,2.456,5.469,5.478V425.867z M269.709,425.867c0,3.023-2.451,5.479-5.479,5.479c-3.018,0-5.469-2.456-5.469-5.479
		v-26.035c0-3.021,2.451-5.478,5.469-5.478c3.027,0,5.479,2.456,5.479,5.478V425.867z M286.135,425.867
		c0,3.023-2.451,5.479-5.479,5.479c-3.017,0-5.468-2.456-5.468-5.479v-26.035c0-3.021,2.451-5.478,5.468-5.478
		c3.028,0,5.479,2.456,5.479,5.478V425.867z M356.731,425.867c0,3.023-2.452,5.479-5.479,5.479c-3.027,0-5.479-2.456-5.479-5.479
		v-26.035c0-3.021,2.451-5.478,5.479-5.478c3.026,0,5.479,2.456,5.479,5.478V425.867z M373.156,425.867
		c0,3.023-2.451,5.479-5.478,5.479c-3.019,0-5.479-2.456-5.479-5.479v-26.035c0-3.021,2.461-5.478,5.479-5.478
		c3.026,0,5.478,2.456,5.478,5.478V425.867z M389.582,425.867c0,3.023-2.451,5.479-5.469,5.479c-3.026,0-5.478-2.456-5.478-5.479
		v-26.035c0-3.021,2.451-5.478,5.478-5.478c3.018,0,5.469,2.456,5.469,5.478V425.867z M369.152,290.312
		c-15.986,0-30.302-6.797-40.488-17.554l-12.704,21.997l-12.695-21.992c-10.196,10.752-24.512,17.549-40.498,17.549
		c-30.86,0-55.869-25.021-55.869-55.874c0-30.86,25.009-55.884,55.869-55.884c25.156,0,46.191,16.738,53.203,39.599
		c7.002-22.861,28.026-39.599,53.183-39.599c30.86,0,55.879,25.024,55.879,55.884C425.031,265.291,400.012,290.312,369.152,290.312z
		"/>
</g>
</svg>
